<svg width="257" height="238" fill="none" xmlns="http://www.w3.org/2000/svg">
    <path d="m243.1.5-99.5 73.9L162 30.8 243.1.5Z" fill="#E2761B" stroke="#E2761B" stroke-linecap="round" stroke-linejoin="round"/>
    <path d="m13.4.5 98.7 74.6-17.5-44.3L13.4.5ZM207.3 171.8l-26.5 40.6 56.7 15.6 16.3-55.3-46.5-.9ZM2.9 172.7 19.1 228l56.7-15.6-26.5-40.6-46.4.9Z" fill="#E4761B" stroke="#E4761B" stroke-linecap="round" stroke-linejoin="round"/>
    <path d="m72.6 103.2-15.8 23.9 56.3 2.5-2-60.5-38.5 34.1ZM183.9 103.2l-39-34.8-1.3 61.2 56.2-2.5-15.9-23.9ZM75.8 212.4l33.8-16.5-29.2-22.8-4.6 39.3ZM146.9 195.9l33.9 16.5-4.7-39.3-29.2 22.8Z" fill="#E4761B" stroke="#E4761B" stroke-linecap="round" stroke-linejoin="round"/>
    <path d="m180.8 212.4-33.9-16.5 2.7 22.1-.3 9.3 31.5-14.9ZM75.8 212.4l31.5 14.9-.2-9.3 2.5-22.1-33.8 16.5Z" fill="#D7C1B3" stroke="#D7C1B3" stroke-linecap="round" stroke-linejoin="round"/>
    <path d="m107.8 158.5-28.2-8.3 19.9-9.1 8.3 17.4ZM148.7 158.5l8.3-17.4 20 9.1-28.3 8.3Z" fill="#233447" stroke="#233447" stroke-linecap="round" stroke-linejoin="round"/>
    <path d="m75.8 212.4 4.8-40.6-31.3.9 26.5 39.7ZM176 171.8l4.8 40.6 26.5-39.7-31.3-.9ZM199.8 127.1l-56.2 2.5 5.2 28.9 8.3-17.4 20 9.1 22.7-23.1ZM79.6 150.2l20-9.1 8.2 17.4 5.3-28.9-56.3-2.5 22.8 23.1Z" fill="#CD6116" stroke="#CD6116" stroke-linecap="round" stroke-linejoin="round"/>
    <path d="m56.8 127.1 23.6 46-.8-22.9-22.8-23.1ZM177.1 150.2l-1 22.9 23.7-46-22.7 23.1ZM113.1 129.6l-5.3 28.9 6.6 34.1 1.5-44.9-2.8-18.1ZM143.6 129.6l-2.7 18 1.2 45 6.7-34.1-5.2-28.9Z" fill="#E4751F" stroke="#E4751F" stroke-linecap="round" stroke-linejoin="round"/>
    <path d="m148.8 158.5-6.7 34.1 4.8 3.3 29.2-22.8 1-22.9-28.3 8.3ZM79.6 150.2l.8 22.9 29.2 22.8 4.8-3.3-6.6-34.1-28.2-8.3Z" fill="#F6851B" stroke="#F6851B" stroke-linecap="round" stroke-linejoin="round"/>
    <path d="m149.3 227.3.3-9.3-2.5-2.2h-37.7l-2.3 2.2.2 9.3-31.5-14.9 11 9 22.3 15.5h38.3l22.4-15.5 11-9-31.5 14.9Z" fill="#C0AD9E" stroke="#C0AD9E" stroke-linecap="round" stroke-linejoin="round"/>
    <path d="m146.9 195.9-4.8-3.3h-27.7l-4.8 3.3-2.5 22.1 2.3-2.2h37.7l2.5 2.2-2.7-22.1Z" fill="#161616" stroke="#161616" stroke-linecap="round" stroke-linejoin="round"/>
    <path d="m247.3 79.2 8.5-40.8L243.1.5l-96.2 71.4 37 31.3 52.3 15.3 11.6-13.5-5-3.6 8-7.3-6.2-4.8 8-6.1-5.3-4ZM.8 38.4l8.5 40.8-5.4 4 8 6.1-6.1 4.8 8 7.3-5 3.6 11.5 13.5 52.3-15.3 37-31.3L13.4.5.8 38.4Z" fill="#763D16" stroke="#763D16" stroke-linecap="round" stroke-linejoin="round"/>
    <path d="m236.2 118.5-52.3-15.3 15.9 23.9-23.7 46 31.2-.4h46.5l-17.6-54.2ZM72.6 103.2l-52.3 15.3-17.4 54.2h46.4l31.1.4-23.6-46 15.8-23.9ZM143.6 129.6l3.3-57.7 15.2-41.1H94.6l15 41.1 3.5 57.7 1.2 18.2.1 44.8h27.7l.2-44.8 1.3-18.2Z" fill="#F6851B" stroke="#F6851B" stroke-linecap="round" stroke-linejoin="round"/>
</svg>
